<?xml version="1.0" encoding="UTF-8"?>
<svg width="1077px" height="850px" viewBox="0 0 1077 850" version="1.1" xmlns="http://www.w3.org/2000/svg" xmlns:xlink="http://www.w3.org/1999/xlink">
    <title>walkphase_logo copy@1x</title>
    <defs>
        <path d="M0,0 L1077,0 L1077,850 L0,850 L0,0 Z" id="path-1"></path>
    </defs>
    <g id="walkphase_logo-copy" stroke="none" fill="none" xlink:href="#path-1" fill-rule="evenodd" stroke-width="1">
        <g id="Group">
            <line x1="56" y1="753.749828" x2="128" y2="753.749828" id="Line" stroke="#166534" stroke-width="10" fill="#166534" stroke-linecap="round"></line>
            <line x1="6.11195122e-13" y1="783.749828" x2="110" y2="783.749828" id="Line" stroke="#166534" stroke-width="10" fill="#166534" stroke-linecap="round"></line>
            <line x1="36" y1="813.749828" x2="98" y2="813.749828" id="Line" stroke="#166534" stroke-width="10" fill="#166534" stroke-linecap="round"></line>
            <line x1="0" y1="843.749828" x2="79" y2="843.749828" id="Line" stroke="#166534" stroke-width="10" fill="#166534" stroke-linecap="round"></line>
            <circle id="Oval" fill="#166534" cx="624.786115" cy="54" r="54"></circle>
            <path d="M568.720611,2.27329029 L522.235082,0 C446.991578,1.51552686 380.493208,25.66014 322.739974,72.4338394 C264.98674,119.207539 229.17708,179.706846 215.310994,253.931762 L259.164161,253.931762 C268.944114,195.747985 301.267976,142.709392 356.135747,94.8159818 C411.003517,46.9225717 476.664521,22.2599914 553.118758,20.8282409 L568.720611,2.27329029 Z" id="Path" fill="#9ED754"></path>
            <path d="M212.911865,269.12216 L257.318333,269.12216 C255.568833,299.617531 258.562073,329.925565 266.298052,360.046264 C274.03403,390.166962 290.771627,420.474996 316.510843,450.970367 L264.711354,450.970367 C247.158814,428.003124 234.203673,401.849085 225.845932,372.508251 C217.488191,343.167416 213.176835,308.705386 212.911865,269.12216 Z" id="Path" fill="#F9C440"></path>
            <path d="M276.153096,466.872271 L331.489076,466.872271 C340.292309,475.223529 346.894735,481.287476 351.296352,485.064113 C355.697969,488.840751 361.75148,493.824431 369.456885,500.015154 L351.824995,533.158037 C331.442179,518.427867 317.046776,507.380239 308.638787,500.015154 C300.230798,492.650069 289.402235,481.602441 276.153096,466.872271 Z" id="Path" fill="#9A2329"></path>
            <path d="M511.337422,346.429791 C537.730131,375.599002 551.243852,391.604129 551.878584,394.445174 C552.860497,398.840195 545.567153,422.73748 530.789342,441.984965 C524.771064,449.823521 508.28582,466.195628 483.506792,492.549581 C472.984094,503.741089 453.756072,524.526129 425.822726,554.904701 C410.968499,563.546073 398.852305,564.230076 389.474145,556.956708 C380.095986,549.683341 377.496681,538.535367 381.676231,523.512786 C386.034909,518.287409 389.093824,514.700854 390.852978,512.753122 C418.698637,481.92245 436.931782,462.526227 447.611061,451.0974 C464.830199,432.669701 483.465255,418.30974 487.469917,409.087544 C495.159936,391.378466 501.975168,370.775224 507.915612,347.277816 L507.916258,347.27798 C508.188398,346.20746 509.276839,345.560244 510.347359,345.832384 C510.729151,345.92944 511.073778,346.137084 511.338003,346.429265 Z" id="Path" fill="#166534"></path>
            <path d="M649.574089,389.958007 L721.266488,529.938887 L721.266488,529.938887 C725.188144,546.714867 720.632748,558.591098 707.6003,565.56758 C694.567852,572.544061 681.928092,569.05582 669.681021,555.102857 C651.984765,523.284682 639.839657,500.47462 633.245696,486.672672 C619.59745,458.105263 608.892212,428.843767 596.144917,414.641804 C574.209428,390.20313 549.078464,360.121315 520.752023,324.396359 C514.231194,312.404191 511.311449,299.432628 511.992789,285.481669 C513.322001,263.882866 527.104376,212.071433 520.752023,207.131557 C514.399671,202.19168 486.171901,219.569307 483.409082,223.355432 C480.646262,227.141557 478.030192,247.171726 470.331073,283.457924 C469.537844,287.196436 468.071909,292.565378 465.933266,299.564751 C461.333182,306.615649 453.850155,309.566472 443.484184,308.417221 C433.118213,307.26797 427.442077,300.05795 426.455776,286.787161 C428.786506,270.962726 430.780878,258.736643 432.438892,250.108912 C434.096906,241.481181 436.939075,228.539585 440.965397,211.284124 C448.148062,197.805793 465.969742,181.386172 494.430436,162.025259 C511.370012,150.501799 545.644573,117.339519 574.541471,118.707279 C608.084971,120.294973 627.25207,134.734299 632.042767,162.025259 C630.712648,177.213411 629.438626,189.077889 628.220701,197.618693 C625.823791,214.427225 620.174599,233.830463 618.888381,244.689487 C617.602163,255.54851 613.078198,277.771105 609.401613,298.331552 C607.599926,308.407071 606.120541,318.64628 604.759013,328.036173 C604.404046,330.484236 616.644761,346.990352 641.481157,377.554521 L641.482544,377.553395 C644.604251,381.395229 647.315615,385.553004 649.572394,389.958875 Z" id="Path" fill="#166534"></path>
            <path d="M685.715064,260.151422 L749.011698,260.151422 C761.185514,257.057317 767.272422,250.732114 767.272422,241.175815 C767.272422,231.619516 761.185514,224.652295 749.011698,220.274153 L688.406188,220.274153 L651.389563,175.401072 L642.073231,233.010432 C654.325178,245.187595 662.875697,252.784009 667.72479,255.799674 C672.573882,258.81534 678.57064,260.265922 685.715064,260.151422 Z" id="Path" fill="#166534"></path>
            <polygon id="Path" fill="#166534" points="153.972814 749.92748 177.442921 749.92748 197.996877 817.395101 220.567429 749.92748 241.941297 749.92748 263.174259 817.395101 285.585525 749.92748 308.099919 749.92748 276.58181 849 251.718977 849 231.036367 783.749828 209.360264 849 185.666545 849"></polygon>
            <path d="M369.624197,749.92748 L414.241714,849 L389.727398,849 L379.930522,825.753719 L336.289708,825.753719 L327.40058,849 L302.427244,849 L346.697923,749.92748 L369.624197,749.92748 Z M358.727085,772.388093 C357.698093,771.986535 356.538403,772.495171 356.136845,773.524163 L343.064228,807.022743 C342.973792,807.254485 342.927384,807.501065 342.927384,807.749828 C342.927384,808.854398 343.822814,809.749828 344.927384,809.749828 L371.072616,809.749828 C371.32138,809.749828 371.567959,809.703419 371.799701,809.612983 C372.828694,809.211425 373.33733,808.051735 372.935772,807.022743 L359.863155,773.524163 C359.659902,773.003328 359.24792,772.591346 358.727085,772.388093 Z" id="Combined-Shape" fill="#166534"></path>
            <polygon id="Path" fill="#166534" points="423.068062 749.92748 446.027269 749.92748 446.027269 828.481076 492.780359 828.481076 492.780359 849 423.068062 849"></polygon>
            <polygon id="Path" fill="#166534" points="507.697463 749.92748 507.697463 849 530.429297 849 530.429297 819.206001 541.882502 808.106169 574.605211 849 604.256411 849 557.0285 795.342134 597.38531 749.92748 572.112883 749.92748 530.429297 795.342134 530.429297 749.92748"></polygon>
            <path d="M662.449671,749.92748 C680.39745,755.190775 689.37134,766.045349 689.37134,782.4912 C689.37134,798.937051 680.39745,809.791624 662.449671,815.05492 L623.981103,815.05492 L623.981103,849 L613.427802,849 L613.427802,749.92748 L662.449671,749.92748 Z M661.420525,759.25213 L624.059134,759.25213 L624.059134,806.622336 L661.420525,806.622336 C673.116551,801.849939 678.964564,793.954904 678.964564,782.937233 C678.964564,771.919562 673.116551,764.024528 661.420525,759.25213 Z" id="Combined-Shape" fill="#166534"></path>
            <polygon id="Path" fill="#166534" points="710.73111 749.92748 710.73111 847.02348 721.384117 847.02348 721.384117 802.01242 781.96329 802.01242 781.96329 847.02348 792.124701 847.02348 792.124701 749.92748 781.364183 749.92748 781.364183 792.293187 721.384117 792.293187 721.384117 749.92748"></polygon>
            <path d="M863.852814,749.92748 L907.939636,847.02348 L894.852051,847.02348 L883.736058,821.294824 L831.147291,821.294824 L818.954466,847.02348 L807.064228,847.02348 L851.445835,749.92748 L863.852814,749.92748 Z M858.04843,759.647981 C857.027244,759.226965 855.85811,759.7135 855.437095,760.734685 L833.786115,813.249828 L880.786115,813.249828 L859.135135,760.734685 C858.932084,760.242179 858.540936,759.851032 858.04843,759.647981 Z" id="Combined-Shape" fill="#166534"></path>
            <path d="M982.463003,756.249828 C969.468195,749.750585 956.259517,747.643135 942.836971,749.92748 C929.414425,752.211824 920.95323,758.600824 917.453386,769.094479 C916.419038,777.719598 916.94127,783.719339 919.020082,787.093701 C920.323888,789.210061 923.422858,794.459978 935.411858,799.46374 C938.634135,800.808598 947.286112,802.521583 955.168519,804.729644 C957.66156,805.428007 961.272676,806.593853 966.001865,808.22718 C973.233345,810.625343 976.849084,815.294794 976.849084,822.235534 C976.849084,829.176275 973.233345,833.845726 966.001865,836.243888 C957.70627,838.365762 950.542996,839.042322 944.512043,838.273569 C937.407726,838.273569 928.910405,834.185596 919.020082,826.009649 L913.468588,834.274031 C920.059921,839.514972 925.080224,842.953551 928.529497,844.58977 C930.869312,845.699699 952.987977,852.281056 971.200485,844.58977 C980.371342,840.716845 985.772264,834.523471 987.403252,826.009649 C988.748281,814.444253 985.230225,806.429281 976.849084,801.964734 C971.794887,799.272416 955.168519,795.339876 938.23139,789.325396 C933.54767,787.38567 930.313706,784.613825 928.529497,781.00986 C927.01858,768.925989 931.787738,761.673413 942.836971,759.25213 C953.886204,756.830848 965.724132,759.161672 978.350754,766.244602 C979.379655,767.087919 980.750405,766.133336 982.463003,763.380853 C984.175602,760.628371 984.175602,758.251363 982.463003,756.249828 Z" id="Path" fill="#166534"></path>
            <polygon id="Path" fill="#166534" points="1076 749.92748 1076 759.983023 1020.08276 759.983023 1020.08276 793.749828 1070.29938 793.749828 1070.29938 802.633203 1020.08276 802.633203 1020.08276 837.615505 1076 837.615505 1076 848.268406 1008.64251 848.268406 1008.64251 749.92748"></polygon>
        </g>
    </g>
</svg>